<svg width="80" height="80" viewBox="0 0 80 80" fill="none" xmlns="http://www.w3.org/2000/svg">
<rect width="80" height="80" rx="40" fill="url(#paint0_linear_23152_83333)"/>
<path d="M26.4491 27.0545C26.4923 27.0115 26.5786 27.0545 26.5354 27.0975C25.5427 31.1409 27.0102 36.9479 34.952 37.5501C40.6062 37.9803 51.0083 35.5714 59.5112 24.2585C59.5543 24.2155 59.6406 24.2585 59.5975 24.3015C56.2309 35.1413 42.2032 45.5079 31.2401 45.5079C23.2551 45.5079 17.8167 37.7222 26.4491 27.0545ZM41.5558 20C34.8657 20 30.2474 23.8283 30.2474 27.3986C30.2474 30.2806 32.3623 32.9045 38.2323 32.9045C43.9729 32.9045 51.0514 29.4633 55.1518 25.5059C55.195 25.4629 55.195 25.4629 55.1518 25.4199C51.6557 22.0647 46.8647 20 41.5558 20ZM61.1945 39.0557C53.9864 53.1216 41.4695 57.5951 35.4699 58.2404C35.4268 58.2404 35.3836 58.3264 35.4699 58.3264C37.4122 58.9716 39.4409 59.2727 41.5558 59.2727C52.4758 59.2727 61.2808 50.4546 61.2808 39.6149C61.2808 39.4428 61.2808 39.2277 61.2808 39.0557C61.2808 39.0557 61.1945 39.0126 61.1945 39.0557ZM28.7798 55.6164C48.5912 55.6164 64 36.4748 64 25.5489C64 22.4088 62.5325 20.6882 60.2881 20.6882C59.468 20.6882 58.3458 21.1184 57.4825 22.1938C57.4394 22.2368 57.4825 22.3228 57.5689 22.2798C58.0437 22.0217 58.5184 21.8496 58.9501 21.8496C60.2881 21.8496 61.065 22.882 61.065 24.5166C61.065 31.8291 47.21 49.7664 28.9957 49.7664C24.55 49.8094 19.2842 48.691 16.6513 43.3141C16.6513 43.2711 16.565 43.2711 16.565 43.3141C14.4069 48.2609 18.421 55.6164 28.7798 55.6164Z" fill="white"/>
<defs>
<linearGradient id="paint0_linear_23152_83333" x1="204.483" y1="-121.563" x2="-21.3211" y2="55.2695" gradientUnits="userSpaceOnUse">
<stop stop-color="#1F4CDF"/>
<stop offset="1" stop-color="#8177EF"/>
</linearGradient>
</defs>
</svg>
